<svg xmlns="http://www.w3.org/2000/svg" viewBox="0 0 35.39 35.42"><defs><style>.cls-1{fill:#ddd;fill-rule:evenodd;}</style></defs><title>Asset 1</title><g id="Layer_2" data-name="Layer 2"><g id="_9" data-name="9"><path class="cls-1" d="M15.83,25.8c.71.41.71.41,1.54-.15.55-.13.71-.4.71-.56.27-.26.27-.42,0-1,0-1,0-1-1-1.38-.71-.43-.71-.43-1.54.13-.55.27-.71.42-.71.69-.26.15-.26.29,0,1,0,1,0,1,1,1.26Zm-3.91.27c.71.42.71.42,1.53,0,.45-.42.58-.42.58-.82.13,0,.13-.42,0-.71,0-1,0-1-.85-1.4s-1-.54-1.66,0c-.43.15-.56.42-.56.57-.29.14-.29.41,0,1,0,1,0,.85,1,1.4ZM3.26,27.18c.43-.13.43-.13,0-.69a4.18,4.18,0,0,0-.55-1.24c-.4-.42-.4-.42-.69-.16s-.14.16.29.71c.13.69.13.69.53,1,.42.69.42.69.42.4Zm.16-2.09c.42-.42.42-.26.27-1a1.87,1.87,0,0,0-.85-1.38c-.4-.43-.4-.43-.82,0-.14.13-.14.13,0,1s.29.83.69,1.12.29.42.71.26Zm-1.54-.55v-.83c-.15-.84-.15-.84-.57-1.11C.9,22.18.9,22.18.9,22.31v1c.41.56.14.56.56,1s.27.4.42.27Zm4.74,6c-.69-.42-.69-.42-.84-.15-.14,0-.14,0,0,.29l.84.84c.56.43.56.43.69.43.42,0,.42,0,.29-.43-.42-.58-.42-.42-1-1ZM7.73,30c-.13-.85,0-.85-.82-1.27-.71-.27-.58-.27-1.13-.13-.14.13-.14.13,0,.84.15.56.15.56.84,1s.56.29,1,.15.56,0,.13-.55Zm-.55-1.54c.55.27.55.27,1,.14h.15c.27-.14.4-.14.4-.43.14,0,0-.13,0-.69-.13-.84-.13-.84-1-1.26s-.82-.41-1.11-.14c-.69.42-.69.42-.42,1.11.13.85.13.56,1,1.27ZM5.38,29.7c.26,0,.26,0,0-.56s-.14-.55-.72-1-.68-.42-.82-.42c-.15.29-.15.29.14.85a3.14,3.14,0,0,0,.68.84c.58.56.58.56.72.27Zm-.72-2c.58.42.58.42,1,.29.29-.29.29-.29.14-.85s-.14-.69-1-1.11c-.56-.55-.4-.55-.82-.27s-.29.27-.14.83c.14.84.14.84.82,1.11ZM5.78,25.8h0c.15,0,.15,0,.15-.15a1.24,1.24,0,0,0,.69-.4v-1a1.8,1.8,0,0,0-.84-1.13c-.83-.54-.83-.54-1.12,0-.68.42-.68.15-.42,1.13.16.82.16.56.71,1.25a7.78,7.78,0,0,0,.83.28ZM12.49,34c-.28-.26,0-.26-.84-.55-.69-.4-.69-.4-1.11-.4-.43.26-.43.26-.29.4a2,2,0,0,0,.84.55c.83.29.83.29,1.12.29s.42,0,.28-.29Zm-.57-.95c.57.4.57.4,1.13.26s.56-.26.4-.55c-.27-.69,0-.69-.82-.82-.71-.43-.71-.43-1.4-.16s-.56.16-.27.56c.13.55.13.55,1,.71Zm1-1.69c.69.42.69.42,1.24.15.85-.42.85-.42.69-1-.26-.84,0-.84-.95-1.11s-.85-.42-1.41,0c-.84.27-.84.27-.57,1s.15.55,1,1ZM15.56,29c.56-.29.83-.42.83-.56s0-.42,0-.84c0-1,0-.83-1-1.4-.84-.41-.84-.41-1.53.28-.45.14-.72.29-.72.56-.13,0-.13.13-.13.69.13.85.13.85,1,1.27s.82.42,1.53,0Zm-7.4,2.78c.15.56.15.29,1,.69.55.42.55.42,1,.42s.43-.13.14-.55-.14-.4-.69-.83c-.85-.42-.85-.42-1.25-.42-.42.27-.42.27-.15.69Zm2.8-.42c.56-.43.56-.27.27-1s-.14-.69-1-1c-.69-.42-.69-.42-1.4-.29-.54.29-.54.29-.14,1,.14.56.14.56.85,1s.69.42,1.4.27ZM10.54,29c.69.42.69.42,1.38,0,.29-.29.57-.29.57-.42s.14-.43,0-1c0-.83,0-.83-.84-1.12s-1-.42-1.54,0c-.42.14-.55.29-.55.56-.29,0-.29.13,0,.69.13.85.13.85,1,1.27ZM17,35c-.85-.13-.58-.13-1.14,0s-.69,0-.69.29H16a3,3,0,0,0,1.11.14c.69,0,.69,0,.42-.14,0-.29,0-.29-.55-.29Zm.13-.13a2.55,2.55,0,0,0,1.4,0c.56-.13.56-.13.56-.56s0-.42-.71-.42a2.49,2.49,0,0,0-1.38,0c-.58.13-.58.13-.58.56s.15.29.71.42ZM20,33.32c.82-.26.69-.26.82-.84s0-.53-.82-.69-.72-.27-1.54.16-.71.13-.58.82,0,.55.85.69c.55.29.55.29,1.27-.14Zm.4-1.95c.84.15.55.15,1.4-.27s.84-.42.84-1.11c0-.85,0-.85-.84-1-.85-.29-.85-.42-1.54.13-.84.42-.84.42-.84,1.25.29.55.29.55,1,1Zm3.36-3.21c.84-.55.84-.55.84-1.38s0-.71-.84-1.13-.85-.4-1.54.15c-.84.69-.84.69-.84,1.38,0,1,0,.85.84,1.27.69.14.69.14,1.54-.29Zm1.95-3.33c.85-.56.56-.56.85-1.54-.29-1,0-.69-.85-1.11s-.84-.42-1.53.13c-1,.56-.85.43-.85,1.4s0,1,.85,1.38c.84.16.69.16,1.53-.26Zm-11.59,9.9a4.6,4.6,0,0,0,1.27.13c.56-.13.56-.13.4-.42,0-.43,0-.43-.82-.56a5.15,5.15,0,0,0-1.4-.13c-.56.13-.43.13-.43.55a8.67,8.67,0,0,0,1,.43Zm2.38-1.27c.83-.14.83-.14.56-.56,0-.55,0-.55-.71-.95A2,2,0,0,0,15,32c-.85.4-.85.4-.56.95s0,.42.69.56c.85.42.85.42,1.4,0Zm.27-1.94c.71.43.71.43,1.27,0,.82-.42.82-.42.82-1.13s0-.69-.82-1c-1-.42-1-.42-1.69.13s-.56.14-.56,1c.16.83,0,.56,1,1Zm3.07-2.8c.56-.13.85-.27.85-.56v-.69c0-1,0-.84-.85-1.26s-.82-.41-1.8,0c-.29.42-.56.42-.56.84-.15,0-.15.13-.15.69.15.85,0,.85,1,1.27.71.42.71.42,1.53-.29ZM20,25.65c.95.42.82.42,1.8-.13a9.07,9.07,0,0,1,.84-.69v-1c0-1,0-1-.84-1.25-1-.42-1-.42-1.8.14-.58.4-.72.4-.72.55-.26.27-.26.42,0,1,0,1,0,1,.72,1.38Zm5,7.12a2.77,2.77,0,0,0-1.26.29c-.56.4-.56.26-.85.69,0,.26,0,.26.71.26a1.6,1.6,0,0,0,1-.26c.69-.43.56-.43.69-.69.29-.29.29-.29-.42-.29ZM26.6,32c.69-.43.69-.43.69-.85.27-.56.27-.56-.14-.56s-.55-.15-1.4.14a3.92,3.92,0,0,0-.84,1.11c.15.56-.14.56.42.56A1.5,1.5,0,0,0,26.6,32Zm.69-2a1.35,1.35,0,0,0,1.24-.43c.72-.55.56-.42.72-1.11s.26-.71-.29-.84-.43-.14-1.25.42-.56.42-.71,1.11,0,.56.29.85Zm3.2-3.36c.56-.56.56-.42.56-1.11.15-.85.15-.85-.4-1s-.42-.27-1.14.13c-.55.58-.55.58-.55,1.4-.27.71-.27.71.29,1s.69.13,1.24-.42ZM32,23.56c.55-.69.42-.42.55-1.38s0-.85-.4-1c-.58-.42-.58-.42-1.13.13s-.4.56-.56,1.41c0,.82,0,.82.56,1.11s.42.27,1-.29ZM20.73,35c.13-.13.13-.13-.43-.13a5.15,5.15,0,0,0-1.4.13c-.55,0-.55,0-.55.29s0,.14.71,0h1l.69-.29Zm-.29-.26a2.47,2.47,0,0,0,1.4-.29c.56-.14.56-.14.56-.56.28-.42.28-.42-.43-.42s-.69-.14-1.24.29c-.85.13-.85.13-.85.55s0,.43.56.43Zm3.22-1.83c.69-.42.69-.42.69-.95.29-.58.29-.43-.55-.58-.56-.27-.56-.27-1.4.15s-.7.43-.7,1,0,.42.56.58a4.25,4.25,0,0,0,1.4-.16Zm2-2.36c.69-.55.69-.55.69-1.11.29-.84.29-.84-.56-1-.55-.29-.55-.29-1.4.27-.69.42-.69.42-.69,1.27,0,.55,0,.55.56.69.84.26.55.26,1.4-.14Zm1.94-2.93c.71-.56.57-.56.71-1.4s0-.69-.56-1c-.71-.42-.56-.42-1.4.27-.69.55-.69.55-.69,1.26s0,.83.56,1c.82.29.55.29,1.38-.13Zm.57-3.07c.56.29.56.29,1.12-.27.82-.56.82-.56.82-1.4s0-.69-.56-1.11c-.82-.43-.82-.43-1.38.13-.84.71-.84.71-.84,1.4,0,1,0,1,.84,1.25Zm5,1.11c-.13,0-.13-.13-.56.42A2.36,2.36,0,0,0,32,27.18c-.14.56-.14.43,0,.56a5.56,5.56,0,0,0,.55-.56,8.72,8.72,0,0,1,.56-1c.29-.56.29-.56,0-.56ZM34,23.14c-.42.57-.42.57-.42,1.13-.13.82-.13.82,0,.82l.29-.42c.27-.55.27-.55.56-1.11.13-.69.13-.69,0-.69-.29-.13,0-.13-.43.27Zm-6,8.65c-.42,0-.42,0-1,.29s-.69.4-.82.82c-.16.16-.16.16.13.16a2.79,2.79,0,0,0,1-.58,1.47,1.47,0,0,1,.84-.53c.14-.43.14-.43-.15-.16Zm2-2.36c-.43,0-.43,0-1,.56-.69.4-.69.4-.83,1s-.15.43.14.43c.42-.27.42,0,1-.69a1.76,1.76,0,0,0,.69-.69c.29-.56.29-.56,0-.56Zm1.66-2.8c-.4,0-.4,0-1,.55s-.58.43-.58,1c-.13.85-.13.56.16.85.42,0,.26,0,.82-.56s.42-.42.84-1c0-.69.14-.69-.29-.84ZM33,23.71c-.14-.15-.14-.15-.83.41a7.32,7.32,0,0,0-.58,1.13c0,.82,0,.82.29,1s.29,0,.69-.56a1.28,1.28,0,0,0,.56-1c.29-.82.29-.82-.13-1ZM32,28h0c.15-.29.15-.42.42-.56h0A1.53,1.53,0,0,0,32,28Zm-.43.13c-.13,0,0,0-.55.56s-.4.42-.82,1c-.16.42-.16.42,0,.29s.26,0,.68-.56h.14c.15-.29.42-.42.55-.84h0c.29-.43.29-.43,0-.43ZM26.73,32.9h0s.27,0,.27-.13.15,0,.29-.29h0c.27,0,.42-.13.42-.4h0c0,.27-.15.27-.42.4-.14.29-.14.29-.29.29s0,.13-.27.13Zm-3.49,1.4a4.42,4.42,0,0,0-1.27.14l-.69.42c0,.13,0,.13.42,0h.14c.42,0,.84-.13,1.11-.13a3.67,3.67,0,0,1,.71-.43Zm-2.8,1c.29,0,.29,0,.29-.29h0c0,.29,0,.29-.29.29Zm-2.65.14ZM14.85,35a2.61,2.61,0,0,1-.82-.13,4.32,4.32,0,0,0-1.11-.13c-.43-.29-.43-.29-.29,0h.29a7.18,7.18,0,0,0,1.67.26h0c.42.29.42.29.26,0Zm-3.76-1c-.55-.13-.55-.13-1-.26h0a7,7,0,0,0,2,.69h-.15L11.09,34Zm-1.24-.69c-.29-.26-.16-.26-1-.55-.54-.42-.54-.42-.69-.42-.43,0-.43,0,0,.13,0,.29.15.29.15.29h0c.4.13.83.55,1.25.69h.29c.26.29.26.29,0-.14Zm-3.07-1.8a1,1,0,0,1-.58-.42h0c.42.42,1,.85,1.4,1.25h0a7.92,7.92,0,0,0-.82-.83Zm-2-2c-.56-.42-.4-.42-.56-.42h0a8.93,8.93,0,0,0,1.54,1.54h0c0,.26,0,0-.14-.14a9.1,9.1,0,0,1-.84-1Zm-2-2.38c-.4-.55-.4-.4-.4-.4h0a7.91,7.91,0,0,0,1.4,1.81h0l-.15-.43a7.88,7.88,0,0,0-.85-1ZM1.46,24.67l-.15-.4c.42.82.57,1.38,1,2.22,0-.28,0-.28-.29-.84a4.13,4.13,0,0,0-.56-1Zm-1-2.49A6.16,6.16,0,0,1,1,23.56a1.31,1.31,0,0,1-.14-.42c-.15-.54-.15-.83-.42-1ZM5.24,13l-.58.56c-.26.13-.26.42-.26,1,0,1,0,.85.55,1.12.83.42.69.42,1.38-.14.45-.13.58-.42.58-.55.27-.29.27-.43.27-1,0-1,0-.85-.85-1.25-.55-.29-.55-.29-1.09.27ZM6.91,9.63a2.38,2.38,0,0,0-.71.56,1.18,1.18,0,0,1-.27.82c0,1,0,1,.69,1.12.69.42.69.42,1.27-.14s.82-.42.82-.55a1.8,1.8,0,0,0,.14-1c0-.83,0-.83-.69-1.25-.56-.16-.56-.16-1.25.42Zm3.2-3.49c-.55-.29-.55-.29-1.4.42-.4.14-.55.27-.55.56-.27.13-.27.42-.27.69-.16.84-.16.71.69,1,.56.26.56.26,1.27-.27.4-.29.69-.42.82-.71V7.12c.29-.85.29-.85-.56-1Zm.56,9.48c-.42.42-.56.69-.82.84v1c0,1,0,1,.82,1.38,1,.42,1,.42,1.82,0,.43-.42.56-.56.56-.82s.13-.43.13-1c-.13-1,0-1-1-1.4-.69-.56-.69-.56-1.54,0ZM12.49,12c-.42.42-.57.42-.57.71-.27.27-.27.4-.27,1,0,1,0,.84,1,1.4.82.42.82.42,1.53-.13s.85-.43.85-.85c.13-.13.13-.42,0-1,0-1,0-1-.85-1.38s-.71-.28-1.67.27ZM16,8.23c-.85-.42-.85-.42-1.54.29a5.37,5.37,0,0,0-.84.53v1c0,1,0,.71.84,1.14s.69.4,1.67,0a6,6,0,0,1,.85-.71V9.63c0-1,0-1-1-1.4ZM7.18,22.6c.13-.29.42-.42.55-.71v-1c-.13-1,0-.69-.82-1.38-.71-.29-.71-.29-1.27.27-.4.13-.4.42-.69.42v1.11c.29.85.29.85.83,1.27.84.54.84.54,1.4,0ZM15.83,2.94c-.82-.16-.69-.16-1.38.26a2.61,2.61,0,0,0-.84.56v.56c0,.57-.16.57.55,1a2.15,2.15,0,0,0,1.67-.14c.56-.42.71-.42.71-.69.27-.15,0-.15,0-.55,0-.72,0-.56-.71-1Zm3.49,19.24a3.3,3.3,0,0,0,.72-.85v-1c0-1,0-1-1-1.38-1-.58-.71-.58-1.69,0l-.83.82v1c0,1,0,1,1,1.4s.83.42,1.8,0Zm0-7.12c-.55.42-.82.56-.82.85-.15.13-.15.4,0,.95,0,1,0,1,1,1.54s.84.42,1.53-.14.85-.42.85-.82c.13-.15.13-.42.13-1-.13-1-.13-1-1-1.4s-.95-.42-1.67,0Zm1.12-6.83c-1-.42-1-.42-1.67,0-.42.29-.69.42-.69.56-.16.26-.16.42-.16,1,.16,1,0,.82,1,1.24s.85.56,1.83,0c.26-.42.55-.42.55-.55s.14-.43,0-1c0-.83,0-.83-.84-1.25Zm0-2.93c-.56.15-.69.15-.69.42-.29.13,0,.42,0,.84,0,1,0,.69,1,1.12.69.42.69.42,1.53,0,.42-.14.56-.14.56-.43.13-.13.13-.42,0-1s0-.55-1-1-.85-.41-1.4,0ZM28.13,13a.83.83,0,0,1,.14.56c0-.43-.14-.83-.14-1.12V13Zm-1,1.4a1.35,1.35,0,0,0,.56-.71v-1c-.15-.71-.15-.71-1-1.26s-.71-.43-1.4,0c-.27.28-.56.28-.69.55v1c.13,1,.13,1,1,1.53.69.43.69.43,1.53-.13ZM.75,19.24A2.54,2.54,0,0,0,.9,18a2.35,2.35,0,0,0-.15-1.14C.48,16.6.48,16.6.35,17c-.29.42-.29.42-.29,1.24a1.15,1.15,0,0,0,.29,1c.13.29.13.29.4,0ZM.9,14.08a8.85,8.85,0,0,1-.42,1.27c0,.69,0,.69.27,1s.15.29.56,0a1.8,1.8,0,0,0,.42-1.38c0-.85,0-.85-.27-1-.42-.29-.15-.29-.56.13Zm1.81-3.34c-.27,0-.27-.15-.69.43a8.11,8.11,0,0,0-.56,1.24c0,.69-.15.69.27,1,.15.14.15.14.71-.42.4-.42.4-.42.4-1.25C3,11,3,11,2.71,10.74ZM4.24,7.81c-.4,0-.26,0-.82.71-.42.27-.42.27-.58,1s-.13.71.16.71c.26.27.26.27.84-.42.56-.29.56-.29.56-1.12.26-.55.26-.55-.16-.84Zm.42-.27c.29,0,.29,0,1-.71.56-.27.56-.27.69-1,0-.55.29-.55-.4-.55-.15,0-.15,0-.69.55a1.72,1.72,0,0,0-.84,1c-.16.42-.16.42.26.71ZM6.33,4.89c.45,0,.45,0,1-.57.85-.4.85-.4.85-.83.15-.29.42-.29-.27-.13-.16,0-.16,0-.71.4a5.38,5.38,0,0,0-.85.71c-.13.42-.13.42,0,.42ZM.9,13.66a5.36,5.36,0,0,0,.41-1.11c.15-.56.15-.56,0-.83-.27,0-.27,0-.41.41a3.31,3.31,0,0,0-.15,1.26c-.27.56-.27.56-.27.69.27.29.27.29.42-.42Zm.56-2.49c.27.27.27.27.42-.43.56-.28.43-.28.56-1s.27-.72,0-.72L2,9.63a9,9,0,0,0-.29,1c-.42.58-.42.58-.27.58ZM2.84,8.65c.16,0,.16,0,.58-.55s.42-.42.56-1c.42-.56.42-.56.26-.42s-.26,0-.55.42a6.65,6.65,0,0,1-.85,1c-.13.55-.13.55,0,.55ZM2.71,19.8c-.4.42-.4.42-.27,1.11,0,.85,0,.85.56,1.27s.69.56,1,.13.42-.42.42-1.4c-.16-1-.16-.69-.71-1.11s-.43-.56-1,0Zm8-16a1.76,1.76,0,0,0-.82,1h0v.15c-.16.56-.16.56.69.83.55.13.55.13,1.38-.27.29-.29.57-.29.71-.56V4.18c0-.69.29-.42-.56-.69-.55-.13-.55-.13-1.4.27Zm2-1.94c-.71.4-.56.14-.71.69,0,.43,0,.43.57.43.69.26.56.26,1.41-.16.69-.4.69-.27.69-.82s0-.42-.69-.42-.72-.14-1.27.28ZM15.56.42a3.06,3.06,0,0,0-1.11.14c-.55.29-.55.29-.84.42,0,.29,0,.29.55.29.85.13.69.13,1.4-.29.56-.13.56-.13.56-.42s0-.14-.56-.14ZM1.88,22.18c.43-.42.43-.42.14-1.27-.14-.69,0-.69-.56-1.11-.15-.42-.15-.42-.56,0-.15.42-.15.42,0,1.11,0,.85,0,.71.41,1,.42.71.42.71.57.29Zm-.42-5.32A2.35,2.35,0,0,0,1.31,18c0,.82,0,.82.42,1.24s.29.29.71,0c.4-.69.4-.42.4-1.4,0-.82,0-.82-.53-1.24s-.43-.29-.85.26Zm1.25-3.33c-.4.55-.4.55-.4,1.4-.29.69-.29.69.4,1.11.29.42.29.42.71-.13.27-.29.42-.29.42-.43v0c.14-.13.14-.42.14-1,0-.84,0-.84-.29-1.11-.69-.29-.69-.29-1,.14ZM4,10.46a7.58,7.58,0,0,0-.56,1.26c0,.83,0,.69.42,1s.4.27.56.27h0l.4-.42c.44-.14.58-.42.58-.56.26-.27.26-.42.26-1,.14-.82.14-.82-.4-1s-.58-.26-1.26.43Zm1.8-3.21c-.54.56-.54.56-.54,1.27-.29.69-.29.69.4,1l.14.15c.15.14.42,0,.84-.42s.56-.42.56-.56.13-.42.13-.84c.29-.69.29-.69-.4-1-.58,0-.58,0-1.13.42Zm2-2.51a1.84,1.84,0,0,0-.82,1c-.13.55-.13.55.4.84.42,0,.58,0,.85-.29,0,.29,0,.29-.27.29.27,0,.42-.29.69-.29.27-.42.56-.55.56-.82.13,0,.13-.15.13-.56.29-.57.29-.57-.42-.57-.54,0-.54-.14-1.12.42ZM11,2.22a1.85,1.85,0,0,0-1.27.29,2.67,2.67,0,0,0-.84.85c-.14.4-.14.4.42.4.58.16.58.16,1.27-.27s.69-.29.69-1c.29-.29.29-.29-.27-.29Zm0-.68c-.29.42-.29.42.27.42s.42,0,1.26-.42c.56-.14.56-.14.69-.56,0-.13,0-.13-.55,0s-.42,0-1,.29-.56.13-.69.27ZM9.14,22.6c1,.27.71.27,1.53,0,.42-.42.56-.42.56-.71.29-.13.29-.56.29-1.11-.29-1,0-1-1-1.4s-.85-.4-1.69.15c-.27.27-.54.4-.54.69-.15.14-.15.42,0,1,0,1,0,.69.83,1.4Zm7-17.3c-.29.42-.56.42-.56.55a1.66,1.66,0,0,0-.13.85c.13.84,0,.84,1,1.11.71.42.71.42,1.53-.13.58-.14.58-.43.85-.56V6.27c0-.82,0-.82-1-1-.82-.41-.82-.41-1.67,0Zm3.2-2.52c-.82-.27-.55-.27-1.4.16-.4.26-.55.26-.55.42-.27.13-.27.13-.27.56.27.55,0,.55,1,1,.82.27.82.27,1.38,0s.84-.42.84-.57V3.76c-.26-.56,0-.56-1-1Zm-.42-1v.4h-.13c.13.16.13.16.69.29.84.43.84.43,1.4.27,0,0-.13,0-.13-.27H21c.71-.13.71-.13.43-.69,0-.42,0-.28-.69-.55-.85-.29-.85-.29-1.41,0-.55.13-.55.13-.42.55ZM21.7.56A4.86,4.86,0,0,0,20.44.42c-.56,0-.56,0-.4.14s0,.29.82.42c.84.29.56.29,1.11.29.71,0,.71,0,.43-.29-.14-.13-.14-.13-.7-.42ZM6.91,16.31c-.29.15-.29.29-.58.55-.13.16,0,.43,0,1,0,1,0,.71.85,1.4.71.29.55.29,1.4-.26.27-.16.56-.43.56-.58s.13-.4.13-1c-.13-1,0-1-.69-1.4-.85-.42-.85-.42-1.67.27Zm3.34-3.9c-.69-.42-.69-.42-1.54.14-.4.15-.55.42-.55.55-.27.29-.27.43-.27,1,0,1,0,1,.82,1.4s.85.43,1.54-.13c.42-.42.71-.42.71-.71a2.23,2.23,0,0,0,.13-1.11c0-1,0-.83-.84-1.12Zm.29-3.36c-.43.16-.69.43-.69.58-.16.14-.16.4-.16,1,0,.85,0,.85.85,1.13.69.41.69.41,1.53-.15a2.62,2.62,0,0,1,.85-.56c.13-.27.13-.42,0-1,0-1,.13-1-.85-1.24s-.84-.27-1.53.26Zm2-3.2c-.42.29-.57.42-.57.71-.27.14-.27.14-.27.69,0,.85,0,.85.84,1,.69.42.69.42,1.54-.13a9.52,9.52,0,0,1,.82-.56V6.7c0-.85,0-.85-.82-1-.85-.42-.85-.42-1.54.13ZM16.12,1.4c-.69.14-.69.14-.69.56s0,.42.69.55c.85.27.85.27,1.4,0,.83-.29.83-.13.56-.69,0-.42,0-.42-.56-.55-.71-.29-.71-.29-1.4.13ZM18.77.29H17.52C17,.42,17,.42,17,.56s0,.29.82.42c.71.29.56.29,1.27,0,.69-.13.69-.13.4-.42,0-.14,0-.14-.69-.27ZM21,11.44c-.26.28-.55.28-.69.69v1c.14,1,0,.85,1,1.4s.69.43,1.67-.13c.42-.29.71-.42.71-.71.14-.13.14-.27,0-1,0-1,0-1-1-1.26s-.84-.43-1.69,0Zm3.65-.7c.42-.15.56-.28.56-.55.13,0,0-.16,0-.71-.14-1-.29-.83-1-1.38-.85-.42-.85-.42-1.54,0-.42.42-.71.42-.71.55s-.13.4,0,1c0,.83,0,.83,1,1.11.85.7.85.7,1.69,0Zm.69-5.29c-.69-.29-.69-.29-1.25-.15-.71.42-.71.42-.42,1,0,.85,0,.85.69,1.27,1,.56.85.56,1.67.14.58-.43.58-.43.29-1.12-.13-.71-.13-.71-1-1.11Zm.85-2c-.85-.29-.85-.29-1.27-.13s-.56.13-.27.56c.13.82.13.55,1,1,.69.56.69.56,1.11.27s.56,0,.27-.69a1.92,1.92,0,0,0-.82-1Zm-.85-1a2.44,2.44,0,0,0,.85.85c.82.4.82.4,1.11.13.27,0,.27,0,0-.29a2.42,2.42,0,0,0-1-.69c-.56-.29-.56-.29-1-.29-.27,0-.42,0,0,.29ZM15,22.31c.55-.13.82-.42.82-.55.16-.14.16-.43.16-1-.16-1.25-.16-1-1-1.54-1-.42-1-.42-1.83.14-.26.42-.55.42-.69.55-.28.29,0,.43,0,1.27s0,.69,1,1.4c.71.27.71.27,1.56-.29Zm0-6.83c-.42.43-.56.56-.56.83-.29.15-.29.29-.29,1,0,1,0,1,1,1.26,1,.69.85.69,1.83,0,.4-.29.55-.55.82-.71v-1c0-.95,0-.95-1-1.38s-.82-.55-1.8,0Zm2-3.76a3.68,3.68,0,0,0-.85.69c-.13.14-.13.29,0,1,0,1,0,1,1,1.25.82.71.82.71,1.67,0,.55-.27.69-.27.69-.69.29-.29.29-.42.29-1-.29-1-.29-1-1-1.4-1-.4-1-.4-1.8.15ZM23,3.2c-.69-.42-.55-.42-1.25-.26s-.71.26-.42.82c.14.71,0,.56,1,1,.69.42.69.42,1.4.15.56-.42.56-.42.42-1S23.8,3.49,23,3.2Zm1.13-1.38a2.86,2.86,0,0,0-1.26-.28c-.56,0-.56,0-.42.42s0,.42.84.82.84.42,1.4.16.27-.16.13-.56-.13-.16-.69-.56ZM27.56,21.2c.71-.56.57-.56.57-1.4s0-1-.84-1.4c-.69-.4-.56-.4-1.27,0-.82.58-.82.58-.82,1.53s0,1,.82,1.4.71.43,1.54-.13Zm.15-3.63c.82.43.82.43,1.38-.13s.58-.42.58-1.4c-.16-1-.16-.69-.71-1.4-.83-.27-.83-.27-1.4.29-.83.42-.83.42-.56,1.38,0,1,0,1,.71,1.26Zm2.52-3.49c.68-.42.68-.42.42-1.38,0-.71,0-.71-.71-1.13s-.69-.56-1.25-.13-.56.28-.42,1.26,0,1,.82,1.38.58.42,1.14,0Zm-.56-5.43c-.58.14-.58.14-.42,1A1.91,1.91,0,0,0,30.07,11c.84.43.58.43,1.13,0,.4-.27.4-.27.27-1s-.27-.82-.82-1.24-.58-.56-1-.14Zm1.24-1.82c-.68-.56-.68-.56-.84-.27-.4.14-.4,0-.13.69s.13.56.71,1,.55.56,1,.42.29-.13,0-.84l-.69-1Zm0-.27c.29.27.29.27.56.27l-.27-.27c-.29-.71-.29-.42-.71-1.11-.42-.29-.42-.29-.55-.29s-.27,0,0,.29c.29.69.29.69,1,1.11Zm-7.25,15.2c.56-.14.69-.43.69-.56.29-.29.29-.42.29-1-.29-1-.29-1-1-1.4s-.84-.56-1.69,0c-.55.42-.69.56-.69.71-.29.27-.29.4-.29,1.11.29,1,0,1,1,1.25s.85.42,1.69-.13Zm2-3.76c.4-.43.56-.43.56-.56a1.58,1.58,0,0,0,0-1.13c0-1,0-.83-.85-1.38s-.69-.43-1.53.13c-.56.29-.85.42-.85.56-.13.29-.13.42,0,1,0,1.24,0,1,.85,1.66,1,.29,1,.29,1.82-.26Zm1-9.77c-.58.42-.58.42-.42,1.4.13.83,0,.83,1,1.11.83.7.56.7,1.12,0,.69-.28.69-.15.42-1.11s0-.84-.71-1.11c-.83-.42-.83-.42-1.38-.29Zm1.93-2.09c-.55-.42-.55-.42-1-.29-.56.29-.56.29-.41.85.14.84.14.84,1,1.11.56.71.56.71,1.12.29s.42-.29.26-1-.26-.56-1-1Zm-.82-1.4c.42.56.27.56,1,1,.56.42.56.42,1,.13.27,0,.27,0,0-.55a6.62,6.62,0,0,0-1-.83c-.56-.29-.42-.29-.71-.29s-.42,0-.27.56Zm5.43,15.48c.71-.42.42-.42.71-1.24-.29-.72,0-.72-.71-1.14-.27-.4-.27-.4-.69.16-.56.4-.56.4-.42,1.38s0,.84.42,1.26c.42.14.42.14.69-.42Zm1-2.93a2,2,0,0,0,.29-1.38c-.29-.56,0-.56-.43-1s-.42-.43-.84,0-.27.13-.13,1.11c0,.82,0,.82.42,1.25s.42.28.69,0Zm.42-2.92v-1A2,2,0,0,0,34,12.13c-.13-.41-.13-.41-.42,0-.13.28-.13.28,0,1,0,.85,0,.85.42,1.27s.43.27.56,0Zm-3.63,6.41c.56-.56.56-.42.56-1.4,0-.83,0-.83-.56-1.12s-.68-.42-1.24,0-.58.56-.58,1.54,0,.84.58,1.11c.82.42.56.42,1.24-.13Zm1.27-3.34c.4-.58.4-.42.4-1.4-.13-.69-.13-.69-.55-1.11s-.56-.56-1.12,0-.42.42-.42,1.38c0,.71,0,.71.56,1.13s.55.4,1.13,0ZM33,14.37c.42-.42.42-.42.13-1.27-.13-.69-.13-.69-.56-1.11s-.55-.55-1-.27-.4.41-.13,1.25.13.69.71,1.4c.4.27.4.27.83,0Zm.42-2.8c.13-.13.13-.13,0-1a6.45,6.45,0,0,0-.56-1c-.69-.58-.69-.58-.84-.42s-.14.27,0,1,.15.82.55,1.25c.56.28.43.28.85.13Zm-.85-2.36c.43.42.43.42.56.27L33,8.79c-.43-.56-.43-.27-.83-1-.15-.27-.15-.27-.29-.27L32,8.1a2.36,2.36,0,0,0,.55,1.11Zm1.54,11.57c-.14-.42-.14-.42-.56.13s-.42.42-.42,1.27c-.13.69-.13.69.29,1,.13.15.13.15.55-.4s.14-.43.43-1.12c0-.71,0-.71-.29-.84Zm.71-1a2.22,2.22,0,0,0,.13-1c.14-.82.14-.82,0-1.25-.42-.13-.42-.13-.55.27-.29.42-.29.42-.29,1.14s0,.82.29.95c.13.43.13.43.42-.13ZM35.1,17c.29-.42.29-.16,0-1a2.08,2.08,0,0,0-.14-1c-.13-.42,0-.42-.13,0-.29.29-.29.29,0,1A3,3,0,0,0,35,17.29c.14.15.14.15.14-.27ZM2.31,9.48c.13-.69.13-.69.4-1a1,1,0,0,0-.4,1ZM4.4,6.14c.26,0,.26,0,.84-.42s.54-.56.69-1,.27-.42,0-.27l-.15.27A13.1,13.1,0,0,0,4.66,5.85h0c-.42.42-.42.42-.26.29Zm1.93-2c.29,0,.29,0,.85-.42s.42-.4.71-.82h0A7.61,7.61,0,0,0,6.33,4.32h0Zm2-1.24a3.63,3.63,0,0,0,1.25-.43c.55-.29.55-.29.69-.55s.29-.14-.4-.14V2c-.58.26-1,.42-1.27.55l-.27.27c-.15.16-.15.16,0,.16Zm3.61-1.67v0h-.69a1.58,1.58,0,0,1-.69.27c.13,0,.13,0,.69-.27h.69ZM14.16.42h.69a6.58,6.58,0,0,0-2.22.43h.42A3.49,3.49,0,0,1,14.16.42ZM16,.29H17.1c.69,0,.42,0,.42-.29h0c-.71,0-1.4.29-2.09.29H16Zm2.91,0A2.91,2.91,0,0,0,20,.29c.4.13.69.13.4.13h0A9.93,9.93,0,0,1,18.35,0h0c0,.29,0,.29.55.29Zm3.92.56h0A6.55,6.55,0,0,0,21,.42h0a2.48,2.48,0,0,1,.71.14c.7.29.56.29,1.12.29Zm1.26.69c.69.42.56.42.83.42s.42,0,.29-.14-.29-.28-.43-.28a3.22,3.22,0,0,0-1.11-.27h0L23.37,1c-.42,0-.42,0-.13.29.13.13.13.13.84.27Zm2.23.84,1,.56h0a5.71,5.71,0,0,0-2-1h.29c.13.26.13.26.69.42Zm2.38,1.94c.56.42.56.42.82.42s.16,0,0-.27h0A13.38,13.38,0,0,1,28,3.36h0c-.42-.16-.42-.16,0,.13s.15.43.71.83ZM32,7.54h0c0-.29-.14-.42-.43-.71a3.67,3.67,0,0,1,.43.71Zm1.11,1.67h0c0,.27,0,.42.29.42-.29,0-.29-.15-.29-.42Zm.29.82.13.71c.29.7.29.7.42,1,.43.69.43.69.43.27l-.29-.55a2.53,2.53,0,0,1-.27-1l-.29-.27c-.13-.42-.13-.42-.13-.16Zm1.11,2.52v.15c0,.27,0,.27.29.83,0,.84,0,.84.13,1.11l.14.29h0a13.46,13.46,0,0,0-.56-2.38Zm.85,4.31h0c0-.55-.29-.95-.29-1.38V16a1.14,1.14,0,0,1,.29.82Zm0,.71c-.29.43-.29.27-.29,1v1h0a4.61,4.61,0,0,0,.29-2.09h0v.13ZM35,20.36c-.42.42-.42.42-.42,1.26-.13.56-.13.56,0,.69,0,.29,0,.29.29-.42h0a2.2,2.2,0,0,0,.13-1h0a2.68,2.68,0,0,0,.14-1c-.14-.13-.14-.13-.14.43Zm-.42,2.38v0Zm-33.79-1c0-.43,0-.14-.27-1a2.83,2.83,0,0,0-.13-1.25c-.29-.15-.29-.15-.29,0v.4a4.76,4.76,0,0,1,.42,1.4v.29c0,.27,0,.27.27.14ZM.06,19.24V17.29h0a11.11,11.11,0,0,0,0,2.09h0ZM.35,16.6a4.19,4.19,0,0,1,.13-1.12c0-.84,0-.55-.13-1v.43h0A3.38,3.38,0,0,0,.06,16.6h0v.26c0,.16,0,.16.29-.26Zm1.11-5.86c-.15.43-.42.83-.42,1H1c.27-.28.27-.28.42-1ZM5,19.24c.29-.42.43-.42.43-.69.26-.15.26-.29.26-1,0-1,0-1-.84-1.26-.56-.4-.56-.4-1,.15-.58.56-.58.4-.58,1.38,0,.71,0,.71.43,1.14v.26h.15c.56.29.56.29,1.11,0ZM9.27,25.8c.42-.15.58-.28.58-.55.26-.16,0-.42,0-1-.16-.71,0-.71-1-1.13-.69-.54-.69-.54-1.25,0a1.23,1.23,0,0,0-.69.42c-.13.15,0,.29,0,1,.27,1,.27.71,1,1.26s.69.41,1.38,0Z"/></g></g></svg>