<svg id="_9" data-name="9" xmlns="http://www.w3.org/2000/svg" viewBox="0 0 37 34"><defs><style>.cls-1{fill:#0c6626;fill-rule:evenodd;}</style></defs><title>Artboard 3</title><path class="cls-1" d="M30.44,31.23h.13l-.13.13v-.13h0Zm-10.19,1a3.23,3.23,0,0,0-1.27.27c0,.28.85.42,1.83.42s1.8-.14,1.8-.42a3.46,3.46,0,0,0-1.38-.27v.55h-1ZM19.12,1.8A1.2,1.2,0,0,1,20.25.69a1,1,0,0,1,1.11,1,1.12,1.12,0,0,1-1,1.25A1.15,1.15,0,0,1,19.12,1.8Zm.71,1.4c.13,0,.27.13.55.13s.27-.13.43-.13l.42,27.19a2.52,2.52,0,0,0,.13-.83l.43,1.94h.13V30.12a.91.91,0,0,1,.13-.56v-.42l.14.13v.29c0,.14,0,.43.15.43,0,.26.14.4.14.55a.5.5,0,0,1,.13.4,1,1,0,0,0,.29.42v.14H23v-.14l.14-.13c0-.29,0-.42.15-.56a1.57,1.57,0,0,0,.13-.68l.14-.43.13.43a4.63,4.63,0,0,1,.16.68v.43a.51.51,0,0,0,.13-.29v-.27s0-.15.13-.15v-.14c0-.13.16-.26.16-.26v.4c.13,0,.13.15.13.15s0,.13.14.27v.13a.92.92,0,0,1,.13.56v-.14a.77.77,0,0,0,.15-.55V29.27a2.23,2.23,0,0,0,.27.43V30a.39.39,0,0,0,.14.26c0,.14.15.29.15.56l.14.42v-.29l.13-.13h0a.14.14,0,0,1,.15-.14v-.28A1,1,0,0,0,26,30v.4a.54.54,0,0,1,.13.28v.14h.13v.13h0v.16c0,.13,0,.13.16.26v.14h0V29.56a1.21,1.21,0,0,0,.13.43c.14.4.27.68.43,1.11,0,.13.13.26.13.55h.13v-.29a3,3,0,0,0,.29-1,1,1,0,0,0,.14-.4v.4c.13.28.13.55.29,1v.29h.42l.4-2.24L29,30.94v-.13h0v-.27a.56.56,0,0,0,.13-.42.71.71,0,0,0,.13-.42v.42c0,.13,0,.27.16.27v.42h.13c0,.29.14.42.14.55v.29h0a.51.51,0,0,0,.15-.42,2.58,2.58,0,0,0,.27-1V30a.4.4,0,0,0,.13.26c0,.29.16.69.16,1h.13l.14-.84.29.84h0v.13h0c0-.13.13-.26.13-.55,0-.14.13-.27.13-.42a.4.4,0,0,0,.16-.27V29.7l.13-.14.13-.15v.15a.13.13,0,0,0-.13.14v.42c0,.13.13.13.13.27v.42a1.07,1.07,0,0,1,.14.55v.43H32v-.14a1.31,1.31,0,0,1,.14-.42.61.61,0,0,1,.13-.42v-.42c0-.14.13-.27.13-.4h.16v.82c.13,0,.13.13.13.42a.71.71,0,0,0,.14.42v.14l.29.13V30.81a4,4,0,0,0,0-1.25V29a1.57,1.57,0,0,1,.26.56,6.45,6.45,0,0,1,.43,1.11c0,.14.13.43.13.56v.69h0a1.16,1.16,0,0,0,.71.16v-.43c0-.29.14-.55.14-.84v0a2.35,2.35,0,0,1,.42.84,1.37,1.37,0,0,1,.13.43h.16c.26.13.55.26.55.4,0,.42-6.85.84-15.21.84S5.59,32.9,5.59,32.48c0-.14.13-.27.4-.27,0-.13,0-.13.16-.13v-.43c.26-.29.4-.42.4-.71l.29-.27v1.41h.55v-.43a4.48,4.48,0,0,0,.43-1.26,2.12,2.12,0,0,0,.26-.4,1.49,1.49,0,0,1-.13.55v1.38h.42a3.71,3.71,0,0,0,.29-.56c0-.13.13-.55.13-.69l.14-.28s.13,0,.13.28v.83c0,.15.16.15.16.29h.26V30.67a.4.4,0,0,0,.14.27c0,.29.15.42.29.71V30.39c.15,0,0-.14,0-.27V30s.15,0,.15.13a.45.45,0,0,1,.14.27.55.55,0,0,1,.13.42c0,.13.13.42.13.55a.53.53,0,0,0,.14.29v-.29a.77.77,0,0,0,.15-.55v-.42a1,1,0,0,0,.14.42c.13,0,.29.29.29.42a1.61,1.61,0,0,0,.13.42h.29l.4-2.24.42,1.82v-.29a1.81,1.81,0,0,0,.13-.82V29.7a1.4,1.4,0,0,1,.16.42c.13.27.27.42.42.69a1.61,1.61,0,0,0,.13.42v.42h.41V30.12c.15-.13.15-.29.15-.56-.15,0-.15-.15-.15-.29v-.13l.15.13a.55.55,0,0,0,.13.29.77.77,0,0,1,.16.56c0,.13.13.27.13.55a2,2,0,0,1,.27,1h.29V31.5a.19.19,0,0,0,0-.27c.13-.13,0-.29,0-.42V29.7l.13-.14h0v.27c0,.16,0,.16.14.16v.26c.13.14.29.29.29.42s.13.27.29.43c0,.13,0,.13.13.13v.27h.13v-.69a.53.53,0,0,1-.13-.42V29.7c-.13-.14-.13-.43-.29-.56a2.35,2.35,0,0,1-.13-.56,5.74,5.74,0,0,1,.42.56,2.07,2.07,0,0,0,.27.42c.15.27.15.43.29.69l.26.29v.27a.47.47,0,0,1,.16.42l.13.27h.29V30.25a1.12,1.12,0,0,0-.16-.69v-.84c.16,0,.16.13.29.42l.14.13v.29a.93.93,0,0,0,.29.56.42.42,0,0,1,.13.27.53.53,0,0,0,.13.42v-.14a3.2,3.2,0,0,0,.29-1.11v-.42a.71.71,0,0,0,.14.42,2.82,2.82,0,0,0,.29,1.11v-.13a9.46,9.46,0,0,0,.26-1,1.31,1.31,0,0,1,.14-.42v.42a2,2,0,0,0,.29,1,.92.92,0,0,0,.13.56v.13l.15.27h0V29.27a.14.14,0,0,0,.14.14v.29c.13.13.13.29.27.42a.51.51,0,0,0,.15.42ZM11.86,6C7,8.22,2.36,5.85.56,4.74c1.94,4.87,5.3,7.94,9.21,8.36,2.78.13,6.43-2.51,9.08-.85.27.15.42.43.56.43L19.27,4c-2.67-1.38-4.76.71-7.41,2Z"/></svg>