<svg xmlns="http://www.w3.org/2000/svg" viewBox="0 0 230 174.44"><defs><style>.cls-1{fill:#5d7689;opacity:0.17;}.cls-2{fill:none;stroke:#fff;stroke-miterlimit:10;}.cls-3{fill:#495556;}.cls-4{fill:#ffcaa3;}.cls-5{fill:#d7e2d8;}.cls-6{fill:#97aaaf;}.cls-7{fill:#ffd5b5;}.cls-8{fill:#eefff1;}.cls-9{fill:#8cb18c;}.cls-10{fill:#cfd1d1;}.cls-11{fill:#667e84;}.cls-12{fill:#567d9b;}.cls-13{fill:#c6c6c6;}</style></defs><title>Artboard 2</title><g id="OBJECTS"><path class="cls-1" d="M113.12,166.81c0,.94-24.29,1.71-54.25,1.71s-54.24-.77-54.24-1.71,24.28-1.71,54.24-1.71S113.12,165.86,113.12,166.81Z"/><path class="cls-2" d="M134.05,53.38c24.76-.78,61.71-1.25,84.89,1.72"/><path class="cls-3" d="M108.25,55.59a1.12,1.12,0,0,1-.07-2.24c.11,0,10.8-.61,25.84-1.09a1.1,1.1,0,0,1,1.16,1.09,1.13,1.13,0,0,1-1.09,1.16c-15,.47-25.67,1.08-25.78,1.08Z"/><path class="cls-4" d="M118.12,56.47l-1.75,1.94-3.91.19A6.83,6.83,0,0,1,106.75,56l-2.86-3.63-1-1.22S86.68,44.7,82.62,40a18.69,18.69,0,0,0-6.75-7.37c-4.75-2.94-6.68-9.88-6.68-9.88l5.5-2.31s6.12,5.25,8.5,8.25,6.43,4,8.06,5.37c1.47,1.25,9.79,9.7,15.24,12.66a11.16,11.16,0,0,0,1.57.72C113.31,49.34,118.12,56.47,118.12,56.47Z"/><path class="cls-5" d="M118.12,56.47l-1.75,1.94-3.91.19A6.83,6.83,0,0,1,106.75,56l-2.86-3.63c.83-1.82,1.78-3.89,2.6-5.63a11.16,11.16,0,0,0,1.57.72C113.31,49.34,118.12,56.47,118.12,56.47Z"/><path class="cls-6" d="M72.81,25.41s4.69-2.16,4.78-6.1c0,0-7.68-10.87-14.9-10.31S46.28,19.5,46.28,19.5s-5.15,19.31,4.6,28.22,8.9,15.93,8.9,15.93l24.66-4L85.19,58s3.18-7.78.65-11S72.81,25.41,72.81,25.41Z"/><path class="cls-7" d="M58.61,18.8l7.83,10.31s-3-2.2-4.41-1.69a53.56,53.56,0,0,1-5.25,1.27l-4.91-6.56Z"/><path class="cls-4" d="M59.64,17.86l-14.11-.28s-2.25-.75-2.25-.42a15.6,15.6,0,0,0,1.13,2.34s.56,3.8,3.89,3.19l.1,0c.55,1.34,3.35,7.43,8.52,7.1C62.73,29.39,59.64,17.86,59.64,17.86Z"/><path class="cls-8" d="M77.78,152.43a27.72,27.72,0,0,0-3.25,9.88,2.91,2.91,0,0,0,2,3.14,30.25,30.25,0,0,0,12.17,1.2,2.41,2.41,0,0,0,2.2-2.23,1.8,1.8,0,0,0-.13-.79c-.51-1.26-4.26-5.48-4.64-9.47Z"/><path class="cls-8" d="M33.11,144.6l-1-.2a3.19,3.19,0,0,0-2.77.77,13,13,0,0,1-2.25,1.64c-.12.06-2.67.93-2.53,2.2s-.42,5-2,6.89-2.71,10.87,2.25,11.39,7.5-5.35,7.5-5.35l4.74-7.62a6.84,6.84,0,0,0,1-3.6V149Z"/><path class="cls-9" d="M59.31,61.55s-4,7-.49,16.78a16.85,16.85,0,0,1,.85,7.9c-1,7.27-3.11,20.93-5.42,23.92-3.19,4.13-7.87,2.63-21.94,34.12A25.56,25.56,0,0,0,37.42,150a4,4,0,0,0,5.66-.59c6.88-8.87,27.09-35.72,34-53.65l2.82,17.35-3.22,39.06a2,2,0,0,0,1.72,2.18l11.64,1.8A2.54,2.54,0,0,0,93,153.56l-.88-42.85-.85-29.43a23,23,0,0,0-.94-5.88L85.19,58Z"/><path class="cls-7" d="M125.49,55.55c0,.78-.16,1.59-.93,1.64A3.74,3.74,0,0,1,123,57a1.53,1.53,0,0,0-1.62.4,2.05,2.05,0,0,1-1.5.65,1.72,1.72,0,0,0-.8.2l-.72.38a3.09,3.09,0,0,1-3.51-.42l-.18-.16-2-2.69a4.52,4.52,0,0,0-2.35-1.68,3.5,3.5,0,0,0-.56-.13,48.31,48.31,0,0,0-12.28-.28,32.84,32.84,0,0,1-15.84-2.72L66.44,48.34a25.22,25.22,0,0,0,6.37-8.87s8.7,2.82,9.88,3.75c.8.63,3.45.43,5.07.24a8.88,8.88,0,0,1,2.77.11c3.73.72,13.34,2.56,15,2.56a74.7,74.7,0,0,1,8.62,1.4l2.35.55,1.21.29a8.75,8.75,0,0,1,4.22,2.34l2.61,2.62A3.15,3.15,0,0,1,125.49,55.55Z"/><path class="cls-8" d="M46.75,20.47s-2.34-1.22-2.47-2.66c-.07-.87-.52-3.11-.86-4.74a8.19,8.19,0,0,1,1.27-6.42,7.39,7.39,0,0,1,5-3c6.28-1.06,8.56,2.69,8.56,2.69l2.81,7,.59,1.57s3.35,6.75,2.16,8.37-4.47,1.69-6.91,2.6-4,2.87-6.34,1.25S46.75,20.47,46.75,20.47Z"/><path class="cls-10" d="M224.55,50.85c-1.37,3.35-4.23,5.36-6.38,4.48s-2.79-4.32-1.42-7.67,4.24-5.36,6.39-4.48S225.92,47.49,224.55,50.85Z"/><rect class="cls-11" x="52.66" y="15.02" width="2.79" height="1.12" rx="0.42" transform="translate(-2.19 14.68) rotate(-15.16)"/><path class="cls-8" d="M125.49,55.55c0,.78-.16,1.59-.93,1.64A3.74,3.74,0,0,1,123,57a1.53,1.53,0,0,0-1.62.4,2.05,2.05,0,0,1-1.5.65,1.72,1.72,0,0,0-.8.2l-.72.38a3.09,3.09,0,0,1-3.51-.42l-.18-.16-2-2.69a4.52,4.52,0,0,0-2.35-1.68c1-1.49,3.62-5.08,6.1-4.87v-.71l1.21.29a8.75,8.75,0,0,1,4.22,2.34l2.61,2.62A3.15,3.15,0,0,1,125.49,55.55Z"/><path class="cls-12" d="M77.06,95.48l1.07-3.11c.33-.94.66-2,1-3.21s.74-2.44,1.09-3.71.69-2.54,1-3.74.56-2.32.76-3.29c.41-1.93.68-3.22.68-3.22s-.1,1.32-.41,3.28c-.16,1-.35,2.12-.61,3.33s-.58,2.49-.92,3.77-.76,2.54-1.16,3.71-.82,2.25-1.19,3.17C77.64,94.3,77.06,95.48,77.06,95.48Z"/><path class="cls-12" d="M80.5,113.71a3,3,0,0,1,.37-.32,5.35,5.35,0,0,1,.9-.53,4.78,4.78,0,0,1,1-.33,2.24,2.24,0,0,1,.49-.07,3,3,0,0,1-.37.32,5,5,0,0,1-.9.53,4.78,4.78,0,0,1-1,.33A3.56,3.56,0,0,1,80.5,113.71Z"/><path class="cls-12" d="M81,115.46s.22-.09.52-.18l1.1-.35,1.1-.33.53-.14a2.68,2.68,0,0,1-.4.39,3.48,3.48,0,0,1-1.09.56,3.58,3.58,0,0,1-1.21.15A2.85,2.85,0,0,1,81,115.46Z"/><path class="cls-12" d="M54,112.47l.31-.1c.2-.05.47-.16.79-.28a12.52,12.52,0,0,0,2.21-1.16,12.37,12.37,0,0,0,1.9-1.61,8,8,0,0,0,.56-.63l.21-.24a4.74,4.74,0,0,1-.55,1,6.18,6.18,0,0,1-.77,1,6.71,6.71,0,0,1-1.07.9,8.29,8.29,0,0,1-1.24.66,7.62,7.62,0,0,1-1.17.36,6,6,0,0,1-.85.11Z"/><path class="cls-12" d="M35.75,140.2l.5-.2c.33-.12.78-.31,1.32-.54a34.63,34.63,0,0,0,3.84-1.9A36.27,36.27,0,0,0,45,135.2c.47-.36.86-.65,1.12-.87l.43-.34a14.7,14.7,0,0,1-1.37,1.42,19.26,19.26,0,0,1-3.5,2.58,21.36,21.36,0,0,1-2.09,1c-.68.29-1.34.52-1.91.7A14.74,14.74,0,0,1,35.75,140.2Z"/><path class="cls-12" d="M77.3,151.84l.35-.19c.23-.12.54-.31.91-.53s.78-.51,1.21-.83.88-.68,1.3-1.06a16.63,16.63,0,0,0,2.11-2.33c.25-.35.47-.64.6-.85s.23-.34.23-.34a7.64,7.64,0,0,1-.6,1.35,10,10,0,0,1-.83,1.26,10.78,10.78,0,0,1-1.18,1.28A11.27,11.27,0,0,1,80,150.66a11.8,11.8,0,0,1-1.33.71,7.51,7.51,0,0,1-1,.36Z"/><path class="cls-13" d="M27,159a2.08,2.08,0,0,1,.77-.2,3.56,3.56,0,0,1,1.7.25,3.47,3.47,0,0,1,1.38,1,2.2,2.2,0,0,1,.4.69,7.64,7.64,0,0,1-.74-.23c-.41-.14-.92-.34-1.42-.55s-1-.42-1.41-.61A7,7,0,0,1,27,159Z"/><path class="cls-13" d="M28.5,156.71a2.06,2.06,0,0,1,.71-.15,3.29,3.29,0,0,1,1.5.3,3.2,3.2,0,0,1,1.2,1,2,2,0,0,1,.34.64,4.41,4.41,0,0,1-.68-.18,12.13,12.13,0,0,1-1.28-.51,13.52,13.52,0,0,1-1.22-.65A6.12,6.12,0,0,1,28.5,156.71Z"/><path class="cls-13" d="M30,154.2a2,2,0,0,1,.74-.15,3.27,3.27,0,0,1,1.55.38,3.18,3.18,0,0,1,1.17,1.09,1.89,1.89,0,0,1,.28.7s-.3-.1-.67-.27-.81-.4-1.25-.64-.88-.49-1.22-.7S30,154.2,30,154.2Z"/><path class="cls-13" d="M82.47,161.18a2,2,0,0,1,.44-.65,3,3,0,0,1,.63-.48,3.93,3.93,0,0,1,.85-.32,3,3,0,0,1,1.68.11,1.88,1.88,0,0,1,.67.4s-.31.09-.72.17l-1.41.29L83.2,161Z"/><path class="cls-13" d="M82.26,158.72a2.05,2.05,0,0,1,.51-.55,3.2,3.2,0,0,1,1.5-.6,3.24,3.24,0,0,1,1.6.21,2,2,0,0,1,.64.41s-.31.09-.71.16-.91.15-1.41.21-1,.11-1.41.14S82.26,158.72,82.26,158.72Z"/><path class="cls-11" d="M50,42.7l2.24,1c.67.32,1.47.64,2.31,1s1.77.72,2.69,1.06,1.84.68,2.72,1,1.69.56,2.41.76l2.37.69s-1-.11-2.44-.42c-.73-.16-1.58-.35-2.47-.62s-1.83-.57-2.77-.91-1.84-.75-2.68-1.13-1.61-.8-2.27-1.16C50.82,43.26,50,42.7,50,42.7Z"/><path class="cls-11" d="M53,47.52s.53,0,1.31.11,1.83.22,2.86.42,2.05.43,2.81.63,1.26.38,1.26.38-.53,0-1.31-.1-1.83-.23-2.86-.42S55,48.1,54.25,47.9,53,47.52,53,47.52Z"/><path class="cls-11" d="M58.3,30.83s.88.26,2.14.78a33.06,33.06,0,0,1,4.46,2.27A31.77,31.77,0,0,1,69,36.8c1,.88,1.68,1.53,1.68,1.53L68.8,37c-1.11-.78-2.62-1.78-4.16-2.72s-3.11-1.81-4.32-2.44Z"/><path class="cls-11" d="M66.28,19.93s.33.26.77.69a21.65,21.65,0,0,1,1.55,1.65A20.35,20.35,0,0,1,70,24.05c.36.51.56.87.56.87s-.32-.26-.77-.69a21.44,21.44,0,0,1-1.55-1.64,22.5,22.5,0,0,1-1.38-1.79C66.49,20.3,66.28,19.93,66.28,19.93Z"/><path class="cls-11" d="M64,31.71a7,7,0,0,1,.73.28,13.14,13.14,0,0,1,2.89,1.77,6.66,6.66,0,0,1,.58.52,7,7,0,0,1-.73-.28,15,15,0,0,1-1.5-.79,14.2,14.2,0,0,1-1.39-1A6.66,6.66,0,0,1,64,31.71Z"/><path class="cls-11" d="M60.49,59.69l2.22-1.14c.67-.33,1.43-.76,2.25-1.19s1.69-.93,2.54-1.44,1.72-1,2.51-1.49,1.53-.94,2.15-1.36l2.1-1.35s-.74.67-1.93,1.58c-.6.45-1.31,1-2.09,1.5s-1.63,1-2.49,1.56-1.75,1-2.59,1.38-1.64.77-2.33,1.06C61.44,59.38,60.49,59.69,60.49,59.69Z"/><path class="cls-11" d="M60.5,56.46s.31-.26.79-.59a19.58,19.58,0,0,1,1.84-1.13c.69-.38,1.4-.71,1.94-.94s.93-.34.93-.34-.31.26-.79.59a19.58,19.58,0,0,1-1.84,1.13c-.69.38-1.4.7-1.94.93S60.5,56.46,60.5,56.46Z"/></g></svg>